<svg xmlns="http://www.w3.org/2000/svg" xmlns:xlink="http://www.w3.org/1999/xlink" width="840" height="908.4000000000001"><rect width="840" height="908.4000000000001" rx="0" ry="0" class="a"></rect><svg height="868.4000000000001" viewBox="0 0 80 86.84" width="800" x="20" xmlns="http://www.w3.org/2000/svg" xmlns:xlink="http://www.w3.org/1999/xlink" y="20"><style>.a{fill:rgb(22,27,34)}.b{font-family:'Fira Code',Monaco,Consolas,Menlo,'Bitstream Vera Sans Mono','Powerline Symbols',monospace}.c{fill:rgb(201,209,217);white-space:pre}.d{fill:rgb(42,161,152);white-space:pre}.e{fill:rgb(38,139,210);white-space:pre}.f{fill:transparent}.g{fill:rgb(201,209,217);font-weight:bold;white-space:pre}.h{fill:rgb(133,153,0);white-space:pre}</style><g font-family="&#x27;Fira Code&#x27;,Monaco,Consolas,Menlo,&#x27;Bitstream Vera Sans Mono&#x27;,&#x27;Powerline Symbols&#x27;,monospace" font-size="1.67" class="b"><defs><symbol id="1"><text font-size="1.67" x="6.012" y="1.67" class="c">dist</text><text font-size="1.67" x="11.021999999999998" y="1.67" class="c">aic_rank</text><text font-size="1.67" x="20.04" y="1.67" class="c">median_est</text></symbol><symbol id="2"><text font-size="1.67" x="0" y="1.67" class="d">ℹ</text><text font-size="1.67" x="2.004" y="1.67" class="c">The</text><text font-size="1.67" x="6.012" y="1.67" class="c">distribution</text><text font-size="1.67" x="19.037999999999997" y="1.67" class="c">with</text><text font-size="1.67" x="24.048" y="1.67" class="c">the</text><text font-size="1.67" x="28.055999999999997" y="1.67" class="c">best</text><text font-size="1.67" x="33.065999999999995" y="1.67" class="c">(lowest)</text><text font-size="1.67" x="42.083999999999996" y="1.67" class="c">AIC</text><text font-size="1.67" x="46.09199999999999" y="1.67" class="c">was</text><text font-size="1.67" x="50.1" y="1.67" class="e">&quot;weibull&quot;</text><text font-size="1.67" x="59.117999999999995" y="1.67" class="c">.</text></symbol><symbol id="a"><rect height="40" width="80" x="0" y="0" class="f"></rect></symbol></defs><rect height="86.84" width="80" class="a"></rect><svg x="0" y="0" width="80"><svg x="0"><use xlink:href="#a"></use><text font-size="1.67" x="0" y="3.8409999999999997" class="d">──</text><text font-size="1.67" x="3.006" y="3.8409999999999997" class="g">Fit</text><text font-size="1.67" x="7.013999999999999" y="3.8409999999999997" class="g">Models</text><text font-size="1.67" x="14.027999999999999" y="3.8409999999999997" class="g">Summary</text><text font-size="1.67" x="22.043999999999997" y="3.8409999999999997" class="d">──────────────────────────────────────────────────────────</text><text font-size="1.67" x="0" y="6.012" class="g">Engine:</text><text font-size="1.67" x="8.016" y="6.012" class="h">flexsurv</text><text font-size="1.67" x="16.032" y="6.012" class="c">.</text><text font-size="1.67" x="0" y="8.183" class="g">Approach:</text><text font-size="1.67" x="10.02" y="8.183" class="h">predict_by_other</text><text font-size="1.67" x="26.052" y="8.183" class="c">.</text><text font-size="1.67" x="0" y="10.354" class="c">•</text><text font-size="1.67" x="2.004" y="10.354" class="c">The</text><text font-size="1.67" x="6.012" y="10.354" class="h">predict_by</text><text font-size="1.67" x="17.034" y="10.354" class="c">argument</text><text font-size="1.67" x="26.052" y="10.354" class="c">was</text><text font-size="1.67" x="30.059999999999995" y="10.354" class="c">set</text><text font-size="1.67" x="34.068" y="10.354" class="c">to</text><text font-size="1.67" x="37.074" y="10.354" class="e">&quot;group&quot;</text><text font-size="1.67" x="44.087999999999994" y="10.354" class="c">,</text><text font-size="1.67" x="46.09199999999999" y="10.354" class="c">which</text><text font-size="1.67" x="52.104" y="10.354" class="c">was</text><text font-size="1.67" x="56.111999999999995" y="10.354" class="c">not</text><text font-size="1.67" x="60.11999999999999" y="10.354" class="c">a</text><text font-size="1.67" x="62.123999999999995" y="10.354" class="h">covariate</text><text font-size="1.67" x="71.142" y="10.354" class="c">.</text><text font-size="1.67" x="0" y="12.525" class="c">•</text><text font-size="1.67" x="2.004" y="12.525" class="c">Therefore,</text><text font-size="1.67" x="13.026" y="12.525" class="c">models</text><text font-size="1.67" x="20.04" y="12.525" class="c">were</text><text font-size="1.67" x="25.05" y="12.525" class="c">fit</text><text font-size="1.67" x="29.058" y="12.525" class="c">for</text><text font-size="1.67" x="33.065999999999995" y="12.525" class="c">each</text><text font-size="1.67" x="38.07599999999999" y="12.525" class="c">level</text><text font-size="1.67" x="44.087999999999994" y="12.525" class="c">of</text><text font-size="1.67" x="47.093999999999994" y="12.525" class="e">&quot;group&quot;</text><text font-size="1.67" x="54.108" y="12.525" class="c">.</text><text font-size="1.67" x="0" y="14.696" class="c">•</text><text font-size="1.67" x="2.004" y="14.696" class="c">This</text><text font-size="1.67" x="7.013999999999999" y="14.696" class="c">is</text><text font-size="1.67" x="10.02" y="14.696" class="c">sometimes</text><text font-size="1.67" x="20.04" y="14.696" class="c">referred</text><text font-size="1.67" x="29.058" y="14.696" class="c">to</text><text font-size="1.67" x="32.064" y="14.696" class="c">as</text><text font-size="1.67" x="35.06999999999999" y="14.696" class="e">&quot;separate</text><text font-size="1.67" x="45.089999999999996" y="14.696" class="e">fits&quot;</text><text font-size="1.67" x="50.1" y="14.696" class="c">.</text><text font-size="1.67" x="0" y="19.037999999999997" class="g">Distributions</text><text font-size="1.67" x="14.027999999999999" y="19.037999999999997" class="g">attempted:</text><text font-size="1.67" x="25.05" y="19.037999999999997" class="e">&quot;exp&quot;</text><text font-size="1.67" x="30.059999999999995" y="19.037999999999997" class="c">,</text><text font-size="1.67" x="32.064" y="19.037999999999997" class="e">&quot;gamma&quot;</text><text font-size="1.67" x="39.077999999999996" y="19.037999999999997" class="c">,</text><text font-size="1.67" x="41.082" y="19.037999999999997" class="e">&quot;gengamma&quot;</text><text font-size="1.67" x="51.102" y="19.037999999999997" class="c">,</text><text font-size="1.67" x="53.105999999999995" y="19.037999999999997" class="e">&quot;gompertz&quot;</text><text font-size="1.67" x="63.12599999999999" y="19.037999999999997" class="c">,</text><text font-size="1.67" x="65.13" y="19.037999999999997" class="e">&quot;llogis&quot;</text><text font-size="1.67" x="73.146" y="19.037999999999997" class="c">,</text><text font-size="1.67" x="0" y="21.209000000000003" class="e">&quot;lnorm&quot;</text><text font-size="1.67" x="7.013999999999999" y="21.209000000000003" class="c">,</text><text font-size="1.67" x="9.017999999999999" y="21.209000000000003" class="c">and</text><text font-size="1.67" x="13.026" y="21.209000000000003" class="e">&quot;weibull&quot;</text><text font-size="1.67" x="22.043999999999997" y="21.209000000000003" class="c">.</text><text font-size="1.67" x="0" y="25.550999999999995" class="c">──</text><text font-size="1.67" x="3.006" y="25.550999999999995" class="g">Median</text><text font-size="1.67" x="10.02" y="25.550999999999995" class="g">survival</text><text font-size="1.67" x="19.037999999999997" y="25.550999999999995" class="g">estimates</text><text font-size="1.67" x="29.058" y="25.550999999999995" class="c">──</text><text font-size="1.67" x="0" y="29.893" class="c">──</text><text font-size="1.67" x="3.006" y="29.893" class="c">Group:</text><text font-size="1.67" x="10.02" y="29.893" class="e">&quot;Male&quot;</text><use xlink:href="#1" y="30.394"></use><text font-size="1.67" x="0" y="34.235" class="c">1</text><text font-size="1.67" x="7.013999999999999" y="34.235" class="c">exp</text><text font-size="1.67" x="18.035999999999998" y="34.235" class="c">5</text><text font-size="1.67" x="22.043999999999997" y="34.235" class="c">7.947301</text><text font-size="1.67" x="0" y="36.406" class="c">2</text><text font-size="1.67" x="5.01" y="36.406" class="c">gamma</text><text font-size="1.67" x="18.035999999999998" y="36.406" class="c">2</text><text font-size="1.67" x="22.043999999999997" y="36.406" class="c">8.505316</text><text font-size="1.67" x="0" y="38.577000000000005" class="c">3</text><text font-size="1.67" x="2.004" y="38.577000000000005" class="c">gengamma</text><text font-size="1.67" x="18.035999999999998" y="38.577000000000005" class="c">3</text><text font-size="1.67" x="22.043999999999997" y="38.577000000000005" class="c">8.713519</text><text font-size="1.67" x="0" y="40.748000000000005" class="c">4</text><text font-size="1.67" x="2.004" y="40.748000000000005" class="c">gompertz</text><text font-size="1.67" x="18.035999999999998" y="40.748000000000005" class="c">4</text><text font-size="1.67" x="22.043999999999997" y="40.748000000000005" class="c">8.797670</text><text font-size="1.67" x="0" y="42.919" class="c">5</text><text font-size="1.67" x="4.008" y="42.919" class="c">llogis</text><text font-size="1.67" x="18.035999999999998" y="42.919" class="c">6</text><text font-size="1.67" x="22.043999999999997" y="42.919" class="c">8.213242</text><text font-size="1.67" x="0" y="45.09" class="c">6</text><text font-size="1.67" x="5.01" y="45.09" class="c">lnorm</text><text font-size="1.67" x="18.035999999999998" y="45.09" class="c">7</text><text font-size="1.67" x="22.043999999999997" y="45.09" class="c">7.663142</text><text font-size="1.67" x="0" y="47.261" class="c">7</text><text font-size="1.67" x="3.006" y="47.261" class="c">weibull</text><text font-size="1.67" x="18.035999999999998" y="47.261" class="c">1</text><text font-size="1.67" x="22.043999999999997" y="47.261" class="c">8.693753</text><text font-size="1.67" x="0" y="51.603" class="d">ℹ</text><text font-size="1.67" x="2.004" y="51.603" class="c">For</text><text font-size="1.67" x="6.012" y="51.603" class="c">comparison,</text><text font-size="1.67" x="18.035999999999998" y="51.603" class="c">the</text><text font-size="1.67" x="22.043999999999997" y="51.603" class="c">KM</text><text font-size="1.67" x="25.05" y="51.603" class="c">median</text><text font-size="1.67" x="32.064" y="51.603" class="c">survival</text><text font-size="1.67" x="41.082" y="51.603" class="c">time</text><text font-size="1.67" x="46.09199999999999" y="51.603" class="c">was</text><text font-size="1.67" x="50.1" y="51.603" class="e">8.871</text><text font-size="1.67" x="55.10999999999999" y="51.603" class="c">.</text><use xlink:href="#2" y="52.104"></use><text font-size="1.67" x="0" y="58.11600000000001" class="c">──</text><text font-size="1.67" x="3.006" y="58.11600000000001" class="c">Group:</text><text font-size="1.67" x="10.02" y="58.11600000000001" class="e">&quot;Female&quot;</text><use xlink:href="#1" y="58.617"></use><text font-size="1.67" x="0" y="62.458" class="c">1</text><text font-size="1.67" x="7.013999999999999" y="62.458" class="c">exp</text><text font-size="1.67" x="18.035999999999998" y="62.458" class="c">6</text><text font-size="1.67" x="22.043999999999997" y="62.458" class="c">13.10811</text><text font-size="1.67" x="0" y="64.629" class="c">2</text><text font-size="1.67" x="5.01" y="64.629" class="c">gamma</text><text font-size="1.67" x="18.035999999999998" y="64.629" class="c">3</text><text font-size="1.67" x="22.043999999999997" y="64.629" class="c">13.28173</text><text font-size="1.67" x="0" y="66.8" class="c">3</text><text font-size="1.67" x="2.004" y="66.8" class="c">gengamma</text><text font-size="1.67" x="18.035999999999998" y="66.8" class="c">4</text><text font-size="1.67" x="22.043999999999997" y="66.8" class="c">13.83206</text><text font-size="1.67" x="0" y="68.971" class="c">4</text><text font-size="1.67" x="2.004" y="68.971" class="c">gompertz</text><text font-size="1.67" x="18.035999999999998" y="68.971" class="c">2</text><text font-size="1.67" x="22.043999999999997" y="68.971" class="c">14.33790</text><text font-size="1.67" x="0" y="71.142" class="c">5</text><text font-size="1.67" x="4.008" y="71.142" class="c">llogis</text><text font-size="1.67" x="18.035999999999998" y="71.142" class="c">5</text><text font-size="1.67" x="22.043999999999997" y="71.142" class="c">13.16945</text><text font-size="1.67" x="0" y="73.313" class="c">6</text><text font-size="1.67" x="5.01" y="73.313" class="c">lnorm</text><text font-size="1.67" x="18.035999999999998" y="73.313" class="c">7</text><text font-size="1.67" x="22.043999999999997" y="73.313" class="c">13.09486</text><text font-size="1.67" x="0" y="75.48400000000001" class="c">7</text><text font-size="1.67" x="3.006" y="75.48400000000001" class="c">weibull</text><text font-size="1.67" x="18.035999999999998" y="75.48400000000001" class="c">1</text><text font-size="1.67" x="22.043999999999997" y="75.48400000000001" class="c">13.54648</text><text font-size="1.67" x="0" y="79.82600000000001" class="d">ℹ</text><text font-size="1.67" x="2.004" y="79.82600000000001" class="c">For</text><text font-size="1.67" x="6.012" y="79.82600000000001" class="c">comparison,</text><text font-size="1.67" x="18.035999999999998" y="79.82600000000001" class="c">the</text><text font-size="1.67" x="22.043999999999997" y="79.82600000000001" class="c">KM</text><text font-size="1.67" x="25.05" y="79.82600000000001" class="c">median</text><text font-size="1.67" x="32.064" y="79.82600000000001" class="c">survival</text><text font-size="1.67" x="41.082" y="79.82600000000001" class="c">time</text><text font-size="1.67" x="46.09199999999999" y="79.82600000000001" class="c">was</text><text font-size="1.67" x="50.1" y="79.82600000000001" class="e">13.996</text><text font-size="1.67" x="56.111999999999995" y="79.82600000000001" class="c">.</text><use xlink:href="#2" y="80.327"></use><text font-size="1.67" x="0" y="84.16799999999999" class="c">────────────────────────────────────────────────────────────────────────────────</text><text font-size="1.67" x="0" y="86.339" class="c">→</text><text font-size="1.67" x="2.004" y="86.339" class="c">For</text><text font-size="1.67" x="6.012" y="86.339" class="c">more</text><text font-size="1.67" x="11.021999999999998" y="86.339" class="c">information,</text><text font-size="1.67" x="24.048" y="86.339" class="c">run</text><text font-size="1.67" x="28.055999999999997" y="86.339" class="c">`View()`</text><text font-size="1.67" x="37.074" y="86.339" class="c">on</text><text font-size="1.67" x="40.08" y="86.339" class="c">saved</text><text font-size="1.67" x="46.09199999999999" y="86.339" class="c">`fit_models()`</text><text font-size="1.67" x="61.12199999999999" y="86.339" class="c">output.</text></svg></svg></g></svg></svg>