<svg xmlns="http://www.w3.org/2000/svg" xmlns:xlink="http://www.w3.org/1999/xlink" width="840" height="474.20000000000005"><rect width="840" height="474.20000000000005" rx="0" ry="0" class="a"></rect><svg height="434.20000000000005" viewBox="0 0 80 43.42" width="800" x="20" xmlns="http://www.w3.org/2000/svg" xmlns:xlink="http://www.w3.org/1999/xlink" y="20"><style>.a{fill:rgb(247,247,247)}.b{font-family:'Fira Code',Monaco,Consolas,Menlo,'Bitstream Vera Sans Mono','Powerline Symbols',monospace}.c{fill:transparent}.d{fill:rgb(42,161,152);white-space:pre}.e{fill:rgb(101,123,131);font-weight:bold;white-space:pre}.f{fill:rgb(101,123,131);white-space:pre}.g{fill:rgb(38,139,210);white-space:pre}</style><g font-family="&#x27;Fira Code&#x27;,Monaco,Consolas,Menlo,&#x27;Bitstream Vera Sans Mono&#x27;,&#x27;Powerline Symbols&#x27;,monospace" font-size="1.67" class="b"><defs><symbol id="a"><rect height="20" width="80" x="0" y="0" class="c"></rect></symbol></defs><rect height="43.42" width="80" class="a"></rect><svg x="0" y="0" width="80"><svg x="0"><use xlink:href="#a"></use><text font-size="1.67" x="0" y="1.67" class="d">──</text><text font-size="1.67" x="3.006" y="1.67" class="e">Kaplan-Meier</text><text font-size="1.67" x="16.032" y="1.67" class="e">Data</text><text font-size="1.67" x="21.041999999999998" y="1.67" class="d">───────────────────────────────────────────────────────────</text><text font-size="1.67" x="0" y="3.8409999999999997" class="f">The</text><text font-size="1.67" x="4.008" y="3.8409999999999997" class="f">get_km</text><text font-size="1.67" x="11.021999999999998" y="3.8409999999999997" class="f">function</text><text font-size="1.67" x="20.04" y="3.8409999999999997" class="f">has</text><text font-size="1.67" x="24.048" y="3.8409999999999997" class="f">produced</text><text font-size="1.67" x="33.065999999999995" y="3.8409999999999997" class="f">the</text><text font-size="1.67" x="37.074" y="3.8409999999999997" class="f">following</text><text font-size="1.67" x="47.093999999999994" y="3.8409999999999997" class="f">outputs:</text><text font-size="1.67" x="0" y="6.012" class="f">•</text><text font-size="1.67" x="2.004" y="6.012" class="e">km</text><text font-size="1.67" x="4.008" y="6.012" class="f">:</text><text font-size="1.67" x="6.012" y="6.012" class="f">A</text><text font-size="1.67" x="8.016" y="6.012" class="f">`survival::survfit()`</text><text font-size="1.67" x="30.059999999999995" y="6.012" class="f">object</text><text font-size="1.67" x="37.074" y="6.012" class="f">for</text><text font-size="1.67" x="41.082" y="6.012" class="f">Kaplan-Meier</text><text font-size="1.67" x="54.108" y="6.012" class="f">estimates.</text><text font-size="1.67" x="0" y="8.183" class="f">•</text><text font-size="1.67" x="2.004" y="8.183" class="e">km_for_excel</text><text font-size="1.67" x="14.027999999999999" y="8.183" class="f">:</text><text font-size="1.67" x="16.032" y="8.183" class="f">A</text><text font-size="1.67" x="18.035999999999998" y="8.183" class="f">list</text><text font-size="1.67" x="23.045999999999996" y="8.183" class="f">of</text><text font-size="1.67" x="26.052" y="8.183" class="f">stepped</text><text font-size="1.67" x="34.068" y="8.183" class="f">Kaplan-Meier</text><text font-size="1.67" x="47.093999999999994" y="8.183" class="f">data</text><text font-size="1.67" x="52.104" y="8.183" class="f">for</text><text font-size="1.67" x="56.111999999999995" y="8.183" class="f">external</text><text font-size="1.67" x="65.13" y="8.183" class="f">plotting.</text><text font-size="1.67" x="0" y="10.354" class="f">•</text><text font-size="1.67" x="2.004" y="10.354" class="e">km_per_group</text><text font-size="1.67" x="14.027999999999999" y="10.354" class="f">:</text><text font-size="1.67" x="16.032" y="10.354" class="f">A</text><text font-size="1.67" x="18.035999999999998" y="10.354" class="f">list</text><text font-size="1.67" x="23.045999999999996" y="10.354" class="f">of</text><text font-size="1.67" x="26.052" y="10.354" class="f">Kaplan-Meier</text><text font-size="1.67" x="39.077999999999996" y="10.354" class="f">estimates</text><text font-size="1.67" x="49.098" y="10.354" class="f">for</text><text font-size="1.67" x="53.105999999999995" y="10.354" class="f">each</text><text font-size="1.67" x="58.116" y="10.354" class="f">group.</text><text font-size="1.67" x="0" y="12.525" class="f">•</text><text font-size="1.67" x="2.004" y="12.525" class="e">km_plot</text><text font-size="1.67" x="9.017999999999999" y="12.525" class="f">:</text><text font-size="1.67" x="11.021999999999998" y="12.525" class="f">A</text><text font-size="1.67" x="13.026" y="12.525" class="f">Kaplan-Meier</text><text font-size="1.67" x="26.052" y="12.525" class="f">plot.</text><text font-size="1.67" x="0" y="14.696" class="f">•</text><text font-size="1.67" x="2.004" y="14.696" class="e">km_summary</text><text font-size="1.67" x="12.024" y="14.696" class="f">:</text><text font-size="1.67" x="14.027999999999999" y="14.696" class="f">A</text><text font-size="1.67" x="16.032" y="14.696" class="f">summary</text><text font-size="1.67" x="24.048" y="14.696" class="f">table</text><text font-size="1.67" x="30.059999999999995" y="14.696" class="f">of</text><text font-size="1.67" x="33.065999999999995" y="14.696" class="f">the</text><text font-size="1.67" x="37.074" y="14.696" class="f">Kaplan-Meier</text><text font-size="1.67" x="50.1" y="14.696" class="f">estimates.</text><text font-size="1.67" x="0" y="19.037999999999997" class="f">──</text><text font-size="1.67" x="3.006" y="19.037999999999997" class="e">km</text><text font-size="1.67" x="6.012" y="19.037999999999997" class="e">Summary</text><text font-size="1.67" x="14.027999999999999" y="19.037999999999997" class="f">──</text><text font-size="1.67" x="8.016" y="23.380000000000003" class="f">group</text><text font-size="1.67" x="14.027999999999999" y="23.380000000000003" class="f">records</text><text font-size="1.67" x="22.043999999999997" y="23.380000000000003" class="f">events</text><text font-size="1.67" x="32.064" y="23.380000000000003" class="f">rmean</text><text font-size="1.67" x="38.07599999999999" y="23.380000000000003" class="f">se(rmean)</text><text font-size="1.67" x="51.102" y="23.380000000000003" class="f">median</text><text font-size="1.67" x="60.11999999999999" y="23.380000000000003" class="f">0.95LCL</text><text font-size="1.67" x="69.13799999999999" y="23.380000000000003" class="f">0.95UCL</text><text font-size="1.67" x="0" y="25.550999999999995" class="f">Male</text><text font-size="1.67" x="9.017999999999999" y="25.550999999999995" class="f">Male</text><text font-size="1.67" x="18.035999999999998" y="25.550999999999995" class="f">138</text><text font-size="1.67" x="25.05" y="25.550999999999995" class="f">112</text><text font-size="1.67" x="29.058" y="25.550999999999995" class="f">10.71324</text><text font-size="1.67" x="38.07599999999999" y="25.550999999999995" class="f">0.7527413</text><text font-size="1.67" x="49.098" y="25.550999999999995" class="f">8.870637</text><text font-size="1.67" x="59.117999999999995" y="25.550999999999995" class="f">6.965092</text><text font-size="1.67" x="68.136" y="25.550999999999995" class="f">10.18480</text><text font-size="1.67" x="0" y="27.722" class="f">Female</text><text font-size="1.67" x="7.013999999999999" y="27.722" class="f">Female</text><text font-size="1.67" x="19.037999999999997" y="27.722" class="f">90</text><text font-size="1.67" x="26.052" y="27.722" class="f">53</text><text font-size="1.67" x="29.058" y="27.722" class="f">15.13420</text><text font-size="1.67" x="38.07599999999999" y="27.722" class="f">1.1397075</text><text font-size="1.67" x="48.096" y="27.722" class="f">13.995893</text><text font-size="1.67" x="58.116" y="27.722" class="f">11.433265</text><text font-size="1.67" x="68.136" y="27.722" class="f">18.06982</text><text font-size="1.67" x="7.013999999999999" y="29.893" class="f">Median</text><text font-size="1.67" x="14.027999999999999" y="29.893" class="f">follow-up</text><text font-size="1.67" x="0" y="32.064" class="f">Male</text><text font-size="1.67" x="15.029999999999998" y="32.064" class="f">27.59754</text><text font-size="1.67" x="0" y="34.235" class="f">Female</text><text font-size="1.67" x="15.029999999999998" y="34.235" class="f">17.37988</text><text font-size="1.67" x="0" y="38.577000000000005" class="g">&quot;km_plot&quot;</text><text font-size="1.67" x="10.02" y="38.577000000000005" class="f">has</text><text font-size="1.67" x="14.027999999999999" y="38.577000000000005" class="f">been</text><text font-size="1.67" x="19.037999999999997" y="38.577000000000005" class="f">printed.</text><text font-size="1.67" x="0" y="40.748000000000005" class="f">────────────────────────────────────────────────────────────────────────────────</text><text font-size="1.67" x="0" y="42.919" class="f">→</text><text font-size="1.67" x="2.004" y="42.919" class="f">For</text><text font-size="1.67" x="6.012" y="42.919" class="f">more</text><text font-size="1.67" x="11.021999999999998" y="42.919" class="f">information,</text><text font-size="1.67" x="24.048" y="42.919" class="f">run</text><text font-size="1.67" x="28.055999999999997" y="42.919" class="f">`View()`</text><text font-size="1.67" x="37.074" y="42.919" class="f">on</text><text font-size="1.67" x="40.08" y="42.919" class="f">saved</text><text font-size="1.67" x="46.09199999999999" y="42.919" class="f">`get_km()`</text><text font-size="1.67" x="57.114" y="42.919" class="f">output.</text></svg></svg></g></svg></svg>