<svg xmlns="http://www.w3.org/2000/svg" xmlns:xlink="http://www.w3.org/1999/xlink" width="840" height="1082.08"><rect width="840" height="1082.08" rx="0" ry="0" class="a"></rect><svg height="1042.08" viewBox="0 0 80 104.208" width="800" x="20" xmlns="http://www.w3.org/2000/svg" xmlns:xlink="http://www.w3.org/1999/xlink" y="20"><style>.a{fill:rgb(247,247,247)}.b{font-family:'Fira Code',Monaco,Consolas,Menlo,'Bitstream Vera Sans Mono','Powerline Symbols',monospace}.c{fill:transparent}.d{fill:rgb(42,161,152);white-space:pre}.e{fill:rgb(101,123,131);font-weight:bold;white-space:pre}.f{fill:rgb(101,123,131);white-space:pre}.g{fill:rgb(148,148,148);white-space:pre}.h{fill:rgb(148,148,148);font-style:italic;white-space:pre}.i{fill:rgb(188,188,188);white-space:pre}.j{fill:rgb(101,123,131);text-decoration:underline;white-space:pre}.k{fill:rgb(220,50,47);white-space:pre}</style><g font-family="&#x27;Fira Code&#x27;,Monaco,Consolas,Menlo,&#x27;Bitstream Vera Sans Mono&#x27;,&#x27;Powerline Symbols&#x27;,monospace" font-size="1.67" class="b"><defs><symbol id="a"><rect height="48" width="80" x="0" y="0" class="c"></rect></symbol></defs><rect height="104.208" width="80" class="a"></rect><svg x="0" y="0" width="80"><svg x="0"><use xlink:href="#a"></use><text font-size="1.67" x="0" y="3.8409999999999997" class="d">──</text><text font-size="1.67" x="3.006" y="3.8409999999999997" class="e">Inspect</text><text font-size="1.67" x="11.021999999999998" y="3.8409999999999997" class="e">Survival</text><text font-size="1.67" x="20.04" y="3.8409999999999997" class="e">Data</text><text font-size="1.67" x="25.05" y="3.8409999999999997" class="d">───────────────────────────────────────────────────────</text><text font-size="1.67" x="0" y="8.183" class="f">──</text><text font-size="1.67" x="3.006" y="8.183" class="e">First</text><text font-size="1.67" x="9.017999999999999" y="8.183" class="e">Few</text><text font-size="1.67" x="13.026" y="8.183" class="e">Rows</text><text font-size="1.67" x="18.035999999999998" y="8.183" class="f">──</text><text font-size="1.67" x="0" y="12.525" class="g">#</text><text font-size="1.67" x="2.004" y="12.525" class="g">A</text><text font-size="1.67" x="4.008" y="12.525" class="g">tibble:</text><text font-size="1.67" x="12.024" y="12.525" class="g">6</text><text font-size="1.67" x="14.027999999999999" y="12.525" class="g">×</text><text font-size="1.67" x="16.032" y="12.525" class="g">12</text><text font-size="1.67" x="3.006" y="14.696" class="f">inst</text><text font-size="1.67" x="9.017999999999999" y="14.696" class="f">time</text><text font-size="1.67" x="14.027999999999999" y="14.696" class="f">status</text><text font-size="1.67" x="23.045999999999996" y="14.696" class="f">age</text><text font-size="1.67" x="29.058" y="14.696" class="f">sex</text><text font-size="1.67" x="33.065999999999995" y="14.696" class="f">ph.ecog</text><text font-size="1.67" x="41.082" y="14.696" class="f">ph.karno</text><text font-size="1.67" x="50.1" y="14.696" class="f">pat.karno</text><text font-size="1.67" x="60.11999999999999" y="14.696" class="f">meal.cal</text><text font-size="1.67" x="69.13799999999999" y="14.696" class="f">wt.loss</text><text font-size="1.67" x="2.004" y="16.866999999999997" class="h">&lt;dbl&gt;</text><text font-size="1.67" x="8.016" y="16.866999999999997" class="h">&lt;dbl&gt;</text><text font-size="1.67" x="15.029999999999998" y="16.866999999999997" class="h">&lt;dbl&gt;</text><text font-size="1.67" x="21.041999999999998" y="16.866999999999997" class="h">&lt;dbl&gt;</text><text font-size="1.67" x="27.054" y="16.866999999999997" class="h">&lt;dbl&gt;</text><text font-size="1.67" x="35.06999999999999" y="16.866999999999997" class="h">&lt;dbl&gt;</text><text font-size="1.67" x="44.087999999999994" y="16.866999999999997" class="h">&lt;dbl&gt;</text><text font-size="1.67" x="54.108" y="16.866999999999997" class="h">&lt;dbl&gt;</text><text font-size="1.67" x="63.12599999999999" y="16.866999999999997" class="h">&lt;dbl&gt;</text><text font-size="1.67" x="71.142" y="16.866999999999997" class="h">&lt;dbl&gt;</text><text font-size="1.67" x="0" y="19.037999999999997" class="i">1</text><text font-size="1.67" x="6.012" y="19.037999999999997" class="f">3</text><text font-size="1.67" x="8.016" y="19.037999999999997" class="f">10.1</text><text font-size="1.67" x="19.037999999999997" y="19.037999999999997" class="f">2</text><text font-size="1.67" x="24.048" y="19.037999999999997" class="f">74</text><text font-size="1.67" x="31.061999999999998" y="19.037999999999997" class="f">1</text><text font-size="1.67" x="39.077999999999996" y="19.037999999999997" class="f">1</text><text font-size="1.67" x="47.093999999999994" y="19.037999999999997" class="f">90</text><text font-size="1.67" x="56.111999999999995" y="19.037999999999997" class="f">100</text><text font-size="1.67" x="64.128" y="19.037999999999997" class="j">1</text><text font-size="1.67" x="65.13" y="19.037999999999997" class="f">175</text><text font-size="1.67" x="74.148" y="19.037999999999997" class="k">NA</text><text font-size="1.67" x="0" y="21.209000000000003" class="i">2</text><text font-size="1.67" x="6.012" y="21.209000000000003" class="f">3</text><text font-size="1.67" x="8.016" y="21.209000000000003" class="f">14.9</text><text font-size="1.67" x="19.037999999999997" y="21.209000000000003" class="f">2</text><text font-size="1.67" x="24.048" y="21.209000000000003" class="f">68</text><text font-size="1.67" x="31.061999999999998" y="21.209000000000003" class="f">1</text><text font-size="1.67" x="39.077999999999996" y="21.209000000000003" class="f">0</text><text font-size="1.67" x="47.093999999999994" y="21.209000000000003" class="f">90</text><text font-size="1.67" x="57.114" y="21.209000000000003" class="f">90</text><text font-size="1.67" x="64.128" y="21.209000000000003" class="j">1</text><text font-size="1.67" x="65.13" y="21.209000000000003" class="f">225</text><text font-size="1.67" x="74.148" y="21.209000000000003" class="f">15</text><text font-size="1.67" x="0" y="23.380000000000003" class="i">3</text><text font-size="1.67" x="6.012" y="23.380000000000003" class="f">3</text><text font-size="1.67" x="8.016" y="23.380000000000003" class="f">33.2</text><text font-size="1.67" x="19.037999999999997" y="23.380000000000003" class="f">1</text><text font-size="1.67" x="24.048" y="23.380000000000003" class="f">56</text><text font-size="1.67" x="31.061999999999998" y="23.380000000000003" class="f">1</text><text font-size="1.67" x="39.077999999999996" y="23.380000000000003" class="f">0</text><text font-size="1.67" x="47.093999999999994" y="23.380000000000003" class="f">90</text><text font-size="1.67" x="57.114" y="23.380000000000003" class="f">90</text><text font-size="1.67" x="66.13199999999999" y="23.380000000000003" class="k">NA</text><text font-size="1.67" x="74.148" y="23.380000000000003" class="f">15</text><text font-size="1.67" x="0" y="25.550999999999995" class="i">4</text><text font-size="1.67" x="6.012" y="25.550999999999995" class="f">5</text><text font-size="1.67" x="9.017999999999999" y="25.550999999999995" class="f">6.90</text><text font-size="1.67" x="19.037999999999997" y="25.550999999999995" class="f">2</text><text font-size="1.67" x="24.048" y="25.550999999999995" class="f">57</text><text font-size="1.67" x="31.061999999999998" y="25.550999999999995" class="f">1</text><text font-size="1.67" x="39.077999999999996" y="25.550999999999995" class="f">1</text><text font-size="1.67" x="47.093999999999994" y="25.550999999999995" class="f">90</text><text font-size="1.67" x="57.114" y="25.550999999999995" class="f">60</text><text font-size="1.67" x="64.128" y="25.550999999999995" class="j">1</text><text font-size="1.67" x="65.13" y="25.550999999999995" class="f">150</text><text font-size="1.67" x="74.148" y="25.550999999999995" class="f">11</text><text font-size="1.67" x="0" y="27.722" class="i">5</text><text font-size="1.67" x="6.012" y="27.722" class="f">1</text><text font-size="1.67" x="8.016" y="27.722" class="f">29.0</text><text font-size="1.67" x="19.037999999999997" y="27.722" class="f">2</text><text font-size="1.67" x="24.048" y="27.722" class="f">60</text><text font-size="1.67" x="31.061999999999998" y="27.722" class="f">1</text><text font-size="1.67" x="39.077999999999996" y="27.722" class="f">0</text><text font-size="1.67" x="46.09199999999999" y="27.722" class="f">100</text><text font-size="1.67" x="57.114" y="27.722" class="f">90</text><text font-size="1.67" x="66.13199999999999" y="27.722" class="k">NA</text><text font-size="1.67" x="75.14999999999999" y="27.722" class="f">0</text><text font-size="1.67" x="0" y="29.893" class="i">6</text><text font-size="1.67" x="5.01" y="29.893" class="f">12</text><text font-size="1.67" x="8.016" y="29.893" class="f">33.6</text><text font-size="1.67" x="19.037999999999997" y="29.893" class="f">1</text><text font-size="1.67" x="24.048" y="29.893" class="f">74</text><text font-size="1.67" x="31.061999999999998" y="29.893" class="f">1</text><text font-size="1.67" x="39.077999999999996" y="29.893" class="f">1</text><text font-size="1.67" x="47.093999999999994" y="29.893" class="f">50</text><text font-size="1.67" x="57.114" y="29.893" class="f">80</text><text font-size="1.67" x="65.13" y="29.893" class="f">513</text><text font-size="1.67" x="75.14999999999999" y="29.893" class="f">0</text><text font-size="1.67" x="2.004" y="32.064" class="f">event</text><text font-size="1.67" x="8.016" y="32.064" class="f">group</text><text font-size="1.67" x="2.004" y="34.235" class="h">&lt;dbl&gt;</text><text font-size="1.67" x="8.016" y="34.235" class="h">&lt;fct&gt;</text><text font-size="1.67" x="0" y="36.406" class="i">1</text><text font-size="1.67" x="6.012" y="36.406" class="f">1</text><text font-size="1.67" x="8.016" y="36.406" class="f">Male</text><text font-size="1.67" x="0" y="38.577000000000005" class="i">2</text><text font-size="1.67" x="6.012" y="38.577000000000005" class="f">1</text><text font-size="1.67" x="8.016" y="38.577000000000005" class="f">Male</text><text font-size="1.67" x="0" y="40.748000000000005" class="i">3</text><text font-size="1.67" x="6.012" y="40.748000000000005" class="f">0</text><text font-size="1.67" x="8.016" y="40.748000000000005" class="f">Male</text><text font-size="1.67" x="0" y="42.919" class="i">4</text><text font-size="1.67" x="6.012" y="42.919" class="f">1</text><text font-size="1.67" x="8.016" y="42.919" class="f">Male</text><text font-size="1.67" x="0" y="45.09" class="i">5</text><text font-size="1.67" x="6.012" y="45.09" class="f">1</text><text font-size="1.67" x="8.016" y="45.09" class="f">Male</text><text font-size="1.67" x="0" y="47.261" class="i">6</text><text font-size="1.67" x="6.012" y="47.261" class="f">0</text><text font-size="1.67" x="8.016" y="47.261" class="f">Male</text><text font-size="1.67" x="0" y="51.603" class="f">──</text><text font-size="1.67" x="3.006" y="51.603" class="e">Sample</text><text font-size="1.67" x="10.02" y="51.603" class="e">Sizes</text><text font-size="1.67" x="16.032" y="51.603" class="f">──</text><text font-size="1.67" x="0" y="55.945" class="g">#</text><text font-size="1.67" x="2.004" y="55.945" class="g">A</text><text font-size="1.67" x="4.008" y="55.945" class="g">tibble:</text><text font-size="1.67" x="12.024" y="55.945" class="g">2</text><text font-size="1.67" x="14.027999999999999" y="55.945" class="g">×</text><text font-size="1.67" x="16.032" y="55.945" class="g">2</text><text font-size="1.67" x="2.004" y="58.11600000000001" class="f">group</text><text font-size="1.67" x="13.026" y="58.11600000000001" class="f">n</text><text font-size="1.67" x="2.004" y="60.287" class="h">&lt;fct&gt;</text><text font-size="1.67" x="9.017999999999999" y="60.287" class="h">&lt;int&gt;</text><text font-size="1.67" x="0" y="62.458" class="i">1</text><text font-size="1.67" x="2.004" y="62.458" class="f">Male</text><text font-size="1.67" x="11.021999999999998" y="62.458" class="f">138</text><text font-size="1.67" x="0" y="64.629" class="i">2</text><text font-size="1.67" x="2.004" y="64.629" class="f">Female</text><text font-size="1.67" x="12.024" y="64.629" class="f">90</text><text font-size="1.67" x="0" y="68.971" class="f">──</text><text font-size="1.67" x="3.006" y="68.971" class="e">Events</text><text font-size="1.67" x="10.02" y="68.971" class="e">Summary</text><text font-size="1.67" x="18.035999999999998" y="68.971" class="f">──</text><text font-size="1.67" x="0" y="73.313" class="g">#</text><text font-size="1.67" x="2.004" y="73.313" class="g">A</text><text font-size="1.67" x="4.008" y="73.313" class="g">tibble:</text><text font-size="1.67" x="12.024" y="73.313" class="g">4</text><text font-size="1.67" x="14.027999999999999" y="73.313" class="g">×</text><text font-size="1.67" x="16.032" y="73.313" class="g">4</text><text font-size="1.67" x="2.004" y="75.48400000000001" class="f">group</text><text font-size="1.67" x="9.017999999999999" y="75.48400000000001" class="f">event</text><text font-size="1.67" x="19.037999999999997" y="75.48400000000001" class="f">n</text><text font-size="1.67" x="21.041999999999998" y="75.48400000000001" class="f">percent</text><text font-size="1.67" x="2.004" y="77.655" class="h">&lt;fct&gt;</text><text font-size="1.67" x="9.017999999999999" y="77.655" class="h">&lt;dbl&gt;</text><text font-size="1.67" x="15.029999999999998" y="77.655" class="h">&lt;int&gt;</text><text font-size="1.67" x="23.045999999999996" y="77.655" class="h">&lt;dbl&gt;</text><text font-size="1.67" x="0" y="79.82600000000001" class="i">1</text><text font-size="1.67" x="2.004" y="79.82600000000001" class="f">Male</text><text font-size="1.67" x="13.026" y="79.82600000000001" class="f">0</text><text font-size="1.67" x="18.035999999999998" y="79.82600000000001" class="f">26</text><text font-size="1.67" x="23.045999999999996" y="79.82600000000001" class="f">0.188</text><text font-size="1.67" x="0" y="81.997" class="i">2</text><text font-size="1.67" x="2.004" y="81.997" class="f">Male</text><text font-size="1.67" x="13.026" y="81.997" class="f">1</text><text font-size="1.67" x="17.034" y="81.997" class="f">112</text><text font-size="1.67" x="23.045999999999996" y="81.997" class="f">0.812</text><text font-size="1.67" x="0" y="84.16799999999999" class="i">3</text><text font-size="1.67" x="2.004" y="84.16799999999999" class="f">Female</text><text font-size="1.67" x="13.026" y="84.16799999999999" class="f">0</text><text font-size="1.67" x="18.035999999999998" y="84.16799999999999" class="f">37</text><text font-size="1.67" x="23.045999999999996" y="84.16799999999999" class="f">0.411</text><text font-size="1.67" x="0" y="86.339" class="i">4</text><text font-size="1.67" x="2.004" y="86.339" class="f">Female</text><text font-size="1.67" x="13.026" y="86.339" class="f">1</text><text font-size="1.67" x="18.035999999999998" y="86.339" class="f">53</text><text font-size="1.67" x="23.045999999999996" y="86.339" class="f">0.589</text><text font-size="1.67" x="0" y="90.681" class="f">──</text><text font-size="1.67" x="3.006" y="90.681" class="e">Survival</text><text font-size="1.67" x="12.024" y="90.681" class="e">Summary</text><text font-size="1.67" x="20.04" y="90.681" class="f">──</text><text font-size="1.67" x="0" y="95.02300000000001" class="g">#</text><text font-size="1.67" x="2.004" y="95.02300000000001" class="g">A</text><text font-size="1.67" x="4.008" y="95.02300000000001" class="g">tibble:</text><text font-size="1.67" x="12.024" y="95.02300000000001" class="g">2</text><text font-size="1.67" x="14.027999999999999" y="95.02300000000001" class="g">×</text><text font-size="1.67" x="16.032" y="95.02300000000001" class="g">9</text><text font-size="1.67" x="2.004" y="97.19399999999999" class="f">records</text><text font-size="1.67" x="10.02" y="97.19399999999999" class="f">n.max</text><text font-size="1.67" x="16.032" y="97.19399999999999" class="f">n.start</text><text font-size="1.67" x="24.048" y="97.19399999999999" class="f">events</text><text font-size="1.67" x="31.061999999999998" y="97.19399999999999" class="f">rmean</text><text font-size="1.67" x="37.074" y="97.19399999999999" class="f">`se(rmean)`</text><text font-size="1.67" x="49.098" y="97.19399999999999" class="f">median</text><text font-size="1.67" x="56.111999999999995" y="97.19399999999999" class="f">`0.95LCL`</text><text font-size="1.67" x="66.13199999999999" y="97.19399999999999" class="f">`0.95UCL`</text><text font-size="1.67" x="4.008" y="99.365" class="h">&lt;dbl&gt;</text><text font-size="1.67" x="10.02" y="99.365" class="h">&lt;dbl&gt;</text><text font-size="1.67" x="18.035999999999998" y="99.365" class="h">&lt;dbl&gt;</text><text font-size="1.67" x="25.05" y="99.365" class="h">&lt;dbl&gt;</text><text font-size="1.67" x="31.061999999999998" y="99.365" class="h">&lt;dbl&gt;</text><text font-size="1.67" x="43.086" y="99.365" class="h">&lt;dbl&gt;</text><text font-size="1.67" x="50.1" y="99.365" class="h">&lt;dbl&gt;</text><text font-size="1.67" x="60.11999999999999" y="99.365" class="h">&lt;dbl&gt;</text><text font-size="1.67" x="70.13999999999999" y="99.365" class="h">&lt;dbl&gt;</text><text font-size="1.67" x="0" y="101.536" class="i">1</text><text font-size="1.67" x="6.012" y="101.536" class="f">138</text><text font-size="1.67" x="12.024" y="101.536" class="f">138</text><text font-size="1.67" x="20.04" y="101.536" class="f">138</text><text font-size="1.67" x="27.054" y="101.536" class="f">112</text><text font-size="1.67" x="32.064" y="101.536" class="f">10.7</text><text font-size="1.67" x="43.086" y="101.536" class="f">0.753</text><text font-size="1.67" x="51.102" y="101.536" class="f">8.87</text><text font-size="1.67" x="61.12199999999999" y="101.536" class="f">6.97</text><text font-size="1.67" x="71.142" y="101.536" class="f">10.2</text><text font-size="1.67" x="0" y="103.707" class="i">2</text><text font-size="1.67" x="7.013999999999999" y="103.707" class="f">90</text><text font-size="1.67" x="13.026" y="103.707" class="f">90</text><text font-size="1.67" x="21.041999999999998" y="103.707" class="f">90</text><text font-size="1.67" x="28.055999999999997" y="103.707" class="f">53</text><text font-size="1.67" x="32.064" y="103.707" class="f">15.1</text><text font-size="1.67" x="43.086" y="103.707" class="f">1.14</text><text font-size="1.67" x="50.1" y="103.707" class="f">14.0</text><text font-size="1.67" x="60.11999999999999" y="103.707" class="f">11.4</text><text font-size="1.67" x="71.142" y="103.707" class="f">18.1</text></svg></svg></g></svg></svg>